<svg xmlns="http://www.w3.org/2000/svg" viewBox="0 0 663.06 186.55"><g id="katman_2" data-name="katman 2"><g id="katman_1-2" data-name="katman 1"><text/><path d="M153.89,52.43c0,1.32.36,2,1.1,2,.44,0,1.39-.87,2.85-2.63a53.83,53.83,0,0,1,5.82-5.8,43.64,43.64,0,0,1,8.67-5.81,25.32,25.32,0,0,1,11.85-2.63,28.1,28.1,0,0,1,13.93,3.62,34,34,0,0,1,11.2,10.32,54,54,0,0,1,7.46,16.13,75.32,75.32,0,0,1,2.74,21.07,73.6,73.6,0,0,1-3.19,22.49,52.52,52.52,0,0,1-8.7,16.9,38.44,38.44,0,0,1-13,10.65,36.14,36.14,0,0,1-16.3,3.73,40.17,40.17,0,0,1-11.78-1.65,44.14,44.14,0,0,1-11.12-5.38h-1.1V173c0,3.06.73,5.13,2.19,6.23a11.18,11.18,0,0,0,4.94,2.07l4.94.77c1.46.21,2.2,1,2.2,2.29s-1.1,2.18-3.3,2.18a53.43,53.43,0,0,1-5.7-.44,83.13,83.13,0,0,0-9.36-.44,96.58,96.58,0,0,0-10.08.44q-4,.44-6.24.44c-2,0-3.07-.73-3.07-2.19a1.92,1.92,0,0,1,1.75-2.08,38.56,38.56,0,0,0,4-1,9.86,9.86,0,0,0,3.95-2.3c1.17-1.1,1.76-3.1,1.76-6V62.29c0-2.62-.48-4.38-1.43-5.25a5.59,5.59,0,0,0-3.07-1.54,23.89,23.89,0,0,0-3-.22q-1.32,0-1.32-1.53c0-1.32.77-2.23,2.3-2.74a17.43,17.43,0,0,0,4.72-2.52,37.64,37.64,0,0,0,8.34-7.34q2.64-3.4,3.73-3.4c.73,0,1.14.48,1.21,1.43s.11,2.22.11,3.83Zm2.2,74.92a18.42,18.42,0,0,0,4.74,5.85,23.55,23.55,0,0,0,6.94,3.85,25,25,0,0,0,8.6,1.44q13.22,0,21.6-12.24t8.37-34.95q0-22.27-7.82-34.07t-20-11.8a22.31,22.31,0,0,0-8.81,1.88,24.4,24.4,0,0,0-7.83,5.29,27.2,27.2,0,0,0-5.51,8,24.37,24.37,0,0,0-2.09,10.14V120A16,16,0,0,0,156.09,127.35Zm134.09-9.71q0,13.61,5.93,13.6a6,6,0,0,0,4.5-2.41c1.38-1.61,2.52-2.41,3.4-2.41a1.35,1.35,0,0,1,1.53,1.53,6.86,6.86,0,0,1-1.86,4.06,32.4,32.4,0,0,1-4.5,4.5,26.75,26.75,0,0,1-5.6,3.62,12.24,12.24,0,0,1-5.15,1.43,7.61,7.61,0,0,1-6.7-3.4q-2.3-3.41-4.28-11.09h-.88a148.38,148.38,0,0,1-14.81,11.2,24.59,24.59,0,0,1-13.5,4.17q-7.89,0-12.29-4.72t-4.39-12.62a24.1,24.1,0,0,1,2.86-11.52A38.33,38.33,0,0,1,243.1,103,117.68,117.68,0,0,1,257.48,92.4q8.56-5.49,19.75-11.85V61.23q0-10.09-2.08-14.48t-8.89-4.39a17.13,17.13,0,0,0-10.76,4,20.9,20.9,0,0,0-7,9.44,97,97,0,0,1-4.83,11.52Q241.24,72,235.09,72a3.79,3.79,0,0,1-2.63-1,3.5,3.5,0,0,1-1.1-2.74q0-4,2.86-9.22a39,39,0,0,1,8.12-10.1,47.61,47.61,0,0,1,12.51-8.12,37.76,37.76,0,0,1,15.8-3.29q6.8,0,10.75,1.76a12.66,12.66,0,0,1,5.93,5,18.68,18.68,0,0,1,2.41,7.9q.43,4.62.44,10.32Zm-14-30.51a5.53,5.53,0,0,0-2.2.88l-6.58,3.73Q245,104.69,245,119.17q0,6.15,3.07,9.77a10.63,10.63,0,0,0,8.56,3.62,17.64,17.64,0,0,0,6.92-1.54,23.24,23.24,0,0,0,6.8-4.5,22.77,22.77,0,0,0,5.16-7.24,23.11,23.11,0,0,0,2-9.76V89.32C277.45,87.86,277,87.13,276.14,87.13Zm79.11-48.57A13.74,13.74,0,0,1,361,40.87a6.1,6.1,0,0,1,2.3,3.35,17.37,17.37,0,0,1,.44,4.06v9q0,4.39-2,4.39c-1.32,0-2.05-.91-2.2-2.74s-1.17-4.35-3.07-7.57a19.83,19.83,0,0,0-7-7.25,17.36,17.36,0,0,0-8.78-2.41,14.48,14.48,0,0,0-10.76,4.49,16.07,16.07,0,0,0-4.39,11.72q0,7.67,4.39,11.93t13.17,8.65q5.7,2.85,10.32,5.48a37.27,37.27,0,0,1,7.9,5.91,23.89,23.89,0,0,1,5.16,7.77,29.69,29.69,0,0,1,1.86,11.28q0,15.55-8.56,24.53t-24.14,9a43.37,43.37,0,0,1-8.67-.88,32.81,32.81,0,0,1-7.68-2.53,21.41,21.41,0,0,1-5.6-3.73,6.35,6.35,0,0,1-2.19-4.71q0-1.76.22-6.48t.22-12.4c0-2.48.8-3.73,2.41-3.73,1.32,0,2.16,1.13,2.52,3.4s1.21,6,2.53,11.08q2.19,7.91,6,12t12,4.06q9.21,0,14.81-6t5.6-15.91q0-8.78-4.83-13.72t-14.71-9.54q-12.06-5.72-17.88-11.64t-5.82-15.58q0-12.51,7.9-20.41t22.17-7.9A54.29,54.29,0,0,1,355.25,38.56Zm49.93,86.07q0,4.62,1.87,6.27a9.58,9.58,0,0,0,4.17,2.2c1.53.37,2.92.66,4.17.88a2,2,0,0,1,1.86,2.09c0,1.17-.25,1.83-.77,2a10.48,10.48,0,0,1-2.52.22c-.88,0-2.6-.15-5.16-.44a93.22,93.22,0,0,0-10.09-.44,78.81,78.81,0,0,0-8.79.44,58,58,0,0,1-6.25.44,9,9,0,0,1-2.74-.33q-1-.33-1-1.86c0-1.17.69-1.86,2.09-2.08s2.88-.51,4.5-.88a10.63,10.63,0,0,0,4.5-2.3c1.38-1.16,2.08-3.21,2.08-6.13V64.47q0-8.1-6.8-8.1a10.16,10.16,0,0,1-2.86-.33c-.73-.22-1.09-.84-1.09-1.86,0-1.47.84-2.49,2.52-3.07a17.48,17.48,0,0,0,5.38-3.29,49.69,49.69,0,0,0,9.1-6.35q3-2.84,4.31-2.84a1.15,1.15,0,0,1,1.29.89,14.26,14.26,0,0,1,.22,3.06ZM404.08,3.29A12.66,12.66,0,0,1,406.5,11a12.21,12.21,0,0,1-2.31,7.36,6.75,6.75,0,0,1-5.59,3.18,6.64,6.64,0,0,1-5.38-3.07,12.07,12.07,0,0,1-2.3-7.47,13,13,0,0,1,2.3-7.68Q395.53,0,398.6,0T404.08,3.29Zm65.74,35.27a13.69,13.69,0,0,1,5.7,2.31,6.18,6.18,0,0,1,2.31,3.35,17.92,17.92,0,0,1,.44,4.06v9q0,4.39-2,4.39c-1.32,0-2.05-.91-2.2-2.74s-1.17-4.35-3.07-7.57a19.75,19.75,0,0,0-7-7.25,17.36,17.36,0,0,0-8.78-2.41,14.44,14.44,0,0,0-10.75,4.49q-4.39,4.48-4.39,11.72,0,7.67,4.39,11.93t13.16,8.65Q463.35,81.34,468,84a37,37,0,0,1,7.9,5.91A23.89,23.89,0,0,1,481,97.65a29.69,29.69,0,0,1,1.86,11.28q0,15.55-8.56,24.53t-24.14,9a43.45,43.45,0,0,1-8.67-.88,32.81,32.81,0,0,1-7.68-2.53,21.58,21.58,0,0,1-5.6-3.73,6.35,6.35,0,0,1-2.19-4.71q0-1.76.22-6.48t.22-12.4c0-2.48.8-3.73,2.41-3.73,1.32,0,2.16,1.13,2.53,3.4s1.2,6,2.52,11.08q2.19,7.91,6,12t12,4.06q9.21,0,14.81-6t5.6-15.91q0-8.78-4.83-13.72t-14.7-9.54q-12.07-5.72-17.89-11.64T429.1,66.06q0-12.51,7.9-20.41t22.17-7.9A54.48,54.48,0,0,1,469.82,38.56Zm88,2.59q6.48,3.41,6.47,9.77,0,13.61-3.29,13.6c-1.46,0-2.49-.84-3.07-2.52a58.3,58.3,0,0,0-3.29-7.13A37.09,37.09,0,0,0,547.07,45a14.21,14.21,0,0,0-9.55-3.29,19.94,19.94,0,0,0-10.43,3,26.54,26.54,0,0,0-8.66,8.91,50.53,50.53,0,0,0-5.93,14.74,84.21,84.21,0,0,0-2.19,20.24q0,22.44,8.55,34.43t22.39,12a23.94,23.94,0,0,0,9.55-1.75,35.86,35.86,0,0,0,6.91-3.84,27.63,27.63,0,0,0,4.39-3.84c1-1.17,1.76-1.76,2.19-1.76,1,0,1.54.44,1.54,1.32s-.7,2.52-2.08,4.5a27.54,27.54,0,0,1-5.82,5.81,37.21,37.21,0,0,1-9,4.94,32,32,0,0,1-11.85,2.09,34.73,34.73,0,0,1-15.91-3.73,38.62,38.62,0,0,1-12.84-10.65,51.43,51.43,0,0,1-8.56-16.57A70.7,70.7,0,0,1,496.7,90a60.69,60.69,0,0,1,3.62-21.5A51.91,51.91,0,0,1,510,52a43.13,43.13,0,0,1,13.93-10.53,37.6,37.6,0,0,1,16.24-3.73Q551.34,37.75,557.82,41.15Zm79.89.33A38.12,38.12,0,0,1,651.54,52a47.49,47.49,0,0,1,8.55,16.47,72.15,72.15,0,0,1,3,21.28A71.7,71.7,0,0,1,660,111.38a48,48,0,0,1-8.88,16.68,39.2,39.2,0,0,1-14.16,10.65,45.87,45.87,0,0,1-18.88,3.73A37.84,37.84,0,0,1,601,138.6a38.67,38.67,0,0,1-13.17-10.76,51.43,51.43,0,0,1-8.56-16.57A69.84,69.84,0,0,1,576.15,90a68.47,68.47,0,0,1,3.18-21.5,48.23,48.23,0,0,1,9-16.47A40.88,40.88,0,0,1,602,41.48a39.57,39.57,0,0,1,17.12-3.73A44.41,44.41,0,0,1,637.71,41.48Zm-40,12.21q-8,12-8,35.08a88.83,88.83,0,0,0,2.2,20.79,54.36,54.36,0,0,0,6.14,15.62,29.74,29.74,0,0,0,9.33,9.9,21.54,21.54,0,0,0,11.74,3.41q14.05,0,22-11.77T649,92.29q0-24.2-8-37.39T619.6,41.7Q605.77,41.7,597.76,53.69Z"/><polygon points="0.27 164.05 0.23 162.66 61.35 131.31 0.23 105.65 0.23 92.08 61.35 60.74 0.46 35.07 0 22.23 79.87 55.95 79.87 56.19 0.91 93.18 79.87 126.53 79.87 126.76 0.27 164.05"/><polygon points="100.69 140.67 39.46 166.45 20.94 161.66 100.47 128.08 21.09 90.9 21.09 90.67 100.06 57.32 21.09 20.33 21.09 20.1 39.61 24.88 100.74 56.23 100.74 69.79 39.61 95.46 100.74 126.8 100.69 140.67"/></g></g></svg>